<svg xmlns="http://www.w3.org/2000/svg" width="1540.9818267822266px" height="345.55554962158203px" class="sequence hand"><desc>Proactive Refresh</desc><defs><marker viewBox="0 0 5 5" markerWidth="5" markerHeight="5" orient="auto" refX="5" refY="2.5" id="markerArrowBlock"><path d="M 0 0 L 5 2.5 L 0 5 z"/></marker><marker viewBox="0 0 9.6 16" markerWidth="4" markerHeight="16" orient="auto" refX="9.6" refY="8" id="markerArrowOpen"><path d="M 9.6,8 1.92,16 0,13.7 5.76,8 0,2.286 1.92,0 9.6,8 z"/></marker></defs><g class="title"><path d="M10,10C36.5,16.6 49.8,3.4 175.9,10.0C177.2,24.3 174.6,34.1 175.9,42.2C116.3,48.9 91.1,35.6 10.0,42.2C11.3,17.7 8.7,32.3 10.0,10.0" stroke="#000000" fill="#ffffff" style="stroke-width: 2;"/><text x="15" y="28.888888359069824" style="font-size: 16px; font-family: danielbd;"><tspan x="15">Proactive Refresh</tspan></text></g><g class="actor"><path d="M10,52.22222137451172C144.6,58.8 36.3,45.7 174.2,52.2C172.5,62.4 175.9,75.0 174.2,94.4C79.7,101.0 74.7,87.9 10.0,94.4C8.3,73.4 11.7,61.4 10.0,52.2" stroke="#000000" fill="#ffffff" style="stroke-width: 2;"/><text x="20" y="76.11110973358154" style="font-size: 16px; font-family: danielbd;"><tspan x="20">Entropy_Chain</tspan></text></g><g class="actor"><path d="M10,283.3333282470703C102.7,276.8 59.3,289.9 174.2,283.3C175.9,312.3 172.5,315.4 174.2,325.6C36.3,332.1 110.5,319.0 10.0,325.6C8.3,309.7 11.7,318.8 10.0,283.3" stroke="#000000" fill="#ffffff" style="stroke-width: 2;"/><text x="20" y="307.22221660614014" style="font-size: 16px; font-family: danielbd;"><tspan x="20">Entropy_Chain</tspan></text></g><path d="M92.1,94.4C99.6,124.7 84.5,253.1 92.1,283.3" stroke="#000000" fill="none" style="stroke-width: 2;"/><g class="actor"><path d="M732.138671875,52.22222137451172C828.9,58.3 756.4,46.2 883.7,52.2C882.0,84.1 885.4,83.6 883.7,94.4C831.8,88.4 859.5,100.5 732.1,94.4C730.4,59.0 733.8,62.7 732.1,52.2" stroke="#000000" fill="#ffffff" style="stroke-width: 2;"/><text x="742.138671875" y="76.11110973358154" style="font-size: 16px; font-family: danielbd;"><tspan x="742.138671875">Validator_TSS</tspan></text></g><g class="actor"><path d="M732.138671875,283.3333282470703C768.5,277.3 847.3,289.4 883.7,283.3C885.4,309.0 882.0,293.5 883.7,325.6C829.2,319.5 801.9,331.6 732.1,325.6C733.8,318.8 730.4,305.0 732.1,283.3" stroke="#000000" fill="#ffffff" style="stroke-width: 2;"/><text x="742.138671875" y="307.22221660614014" style="font-size: 16px; font-family: danielbd;"><tspan x="742.138671875">Validator_TSS</tspan></text></g><path d="M807.9,94.4C815.5,253.1 800.4,185.1 807.9,283.3" stroke="#000000" fill="none" style="stroke-width: 2;"/><g class="signal"><text x="102.08658599853516" y="122.2222204208374" style="font-size: 16px; font-family: danielbd;"><tspan x="102.08658599853516">Tells selected validator to do Proactive Refresh (one validator in each subgroup)</tspan></text><path d="M92.1,136.7C535.7,108.0 693.4,165.3 807.9,136.7" stroke="#000000" fill="none" style="stroke-width: 2; marker-end: url(&quot;#markerArrowBlock&quot;);"/></g><g class="signal"><text x="832.9198989868164" y="172.77777481079102" style="font-size: 16px; font-family: danielbd;"><tspan x="832.9198989868164">Get partition of registered keys</tspan></text><path d="M807.9,156.7C813.4,157.5 812.0,155.9 827.9,156.7" stroke="#000000" fill="none" style="stroke-width: 2;"/><path d="M827.9,156.7C829.0,163.9 826.8,164.9 827.9,183.9" stroke="#000000" fill="none" style="stroke-width: 2;"/><path d="M827.9,183.9C819.8,183.1 814.8,184.7 807.9,183.9" stroke="#000000" fill="none" style="stroke-width: 2; marker-end: url(&quot;#markerArrowBlock&quot;);"/></g><g class="signal"><text x="832.9198989868164" y="214.99999618530273" style="font-size: 16px; font-family: danielbd;"><tspan x="832.9198989868164">Does Proactive Refresh with other selected validators</tspan></text><path d="M807.9,198.9C824.7,198.1 811.4,199.7 827.9,198.9" stroke="#000000" fill="none" style="stroke-width: 2;"/><path d="M827.9,198.9C826.8,216.3 829.0,216.6 827.9,226.1" stroke="#000000" fill="none" style="stroke-width: 2;"/><path d="M827.9,226.1C823.7,226.9 811.1,225.3 807.9,226.1" stroke="#000000" fill="none" style="stroke-width: 2; marker-end: url(&quot;#markerArrowBlock&quot;);"/></g><g class="signal"><text x="832.9511489868164" y="257.22221755981445" style="font-size: 16px; font-family: danielbd;"><tspan x="832.9198989868164">Sends new keyshare to rest of members of subgroup and stores it</tspan></text><path d="M807.9,241.1C818.0,240.3 820.9,241.9 827.9,241.1" stroke="#000000" fill="none" style="stroke-width: 2;"/><path d="M827.9,241.1C829.0,245.5 826.8,259.2 827.9,268.3" stroke="#000000" fill="none" style="stroke-width: 2;"/><path d="M827.9,268.3C811.2,267.5 824.7,269.1 807.9,268.3" stroke="#000000" fill="none" style="stroke-width: 2; marker-end: url(&quot;#markerArrowBlock&quot;);"/></g></svg>